HIERARCHY
ROOT Hips
{
	OFFSET	0.00	0.00	0.00
	CHANNELS 6 Xposition Yposition Zposition Zrotation Xrotation Yrotation
	JOINT LeftUpLeg
	{
		OFFSET	 0.126116	-0.014019	-0.065224
		CHANNELS 3 Zrotation Xrotation Yrotation
		JOINT LeftLeg
		{
			OFFSET	 0.000000	 0.000000	 0.569914
			CHANNELS 3 Zrotation Xrotation Yrotation
			JOINT LeftFoot
			{
				OFFSET	 0.000000	 0.000000	 0.544423
				CHANNELS 3 Zrotation Xrotation Yrotation
				JOINT LeftToeBase
				{
					OFFSET	 0.000000	 0.000000	 0.207117
					CHANNELS 3 Zrotation Xrotation Yrotation
					End Site
					{
						OFFSET	 0.000000	 0.000000	 0.207117
					}
				}
			}
		}
	}
	JOINT RightUpLeg
	{
		OFFSET	-0.124023	-0.008373	-0.065224
		CHANNELS 3 Zrotation Xrotation Yrotation
		JOINT RightLeg
		{
			OFFSET	 0.000000	 0.000000	 0.570047
			CHANNELS 3 Zrotation Xrotation Yrotation
			JOINT RightFoot
			{
				OFFSET	 0.000000	 0.000000	 0.544354
				CHANNELS 3 Zrotation Xrotation Yrotation
				JOINT RightToeBase
				{
					OFFSET	 0.000000	 0.000000	 0.207540
					CHANNELS 3 Zrotation Xrotation Yrotation
					End Site
					{
						OFFSET	 0.000000	 0.000000	 0.207540
					}
				}
			}
		}
	}
	JOINT Spine
	{
		OFFSET	 0.000184	-0.007763	 0.117403
		CHANNELS 3 Zrotation Xrotation Yrotation
		JOINT Spine1
		{
			OFFSET	 0.000000	 0.000000	 0.137269
			CHANNELS 3 Zrotation Xrotation Yrotation
			JOINT Spine2
			{
				OFFSET	 0.000000	 0.000000	 0.156879
				CHANNELS 3 Zrotation Xrotation Yrotation
				JOINT LeftShoulder
				{
					OFFSET	 0.080501	-0.002496	 0.160144
					CHANNELS 3 Zrotation Xrotation Yrotation
					JOINT LeftArm
					{
						OFFSET	 0.000000	 0.000000	 0.164363
						CHANNELS 3 Zrotation Xrotation Yrotation
						JOINT LeftForeArm
						{
							OFFSET	 0.000000	 0.000000	 0.364576
							CHANNELS 3 Zrotation Xrotation Yrotation
							JOINT LeftHand
							{
								OFFSET	 0.000000	 0.000000	 0.360812
								CHANNELS 3 Zrotation Xrotation Yrotation
								JOINT LeftHandIndex1
								{
									OFFSET	 0.000000	 0.000000	 0.086006
									CHANNELS 3 Zrotation Xrotation Yrotation
									JOINT LeftHandIndex2
									{
										OFFSET	 0.000000	 0.000000	 0.047236
										CHANNELS 3 Zrotation Xrotation Yrotation
										JOINT LeftHandIndex3
										{
											OFFSET	-0.004284	-0.000551	 0.038166
											CHANNELS 3 Zrotation Xrotation Yrotation
											End Site
											{
												OFFSET	-0.004284	-0.000551	 0.038166
											}
										}
									}
								}
							}
						}
					}
				}
				JOINT Neck
				{
					OFFSET	 0.000000	 0.000000	 0.176489
					CHANNELS 3 Zrotation Xrotation Yrotation
					JOINT Head
					{
						OFFSET	 0.000000	-0.001747	 0.077940
						CHANNELS 3 Zrotation Xrotation Yrotation
						End Site
						{
							OFFSET	 0.000000	-0.001747	 0.077940
						}
					}
				}
				JOINT RightShoulder
				{
					OFFSET	-0.080363	 0.000306	 0.159706
					CHANNELS 3 Zrotation Xrotation Yrotation
					JOINT RightArm
					{
						OFFSET	 0.000000	 0.000000	 0.164196
						CHANNELS 3 Zrotation Xrotation Yrotation
						JOINT RightForeArm
						{
							OFFSET	 0.000000	 0.000000	 0.365611
							CHANNELS 3 Zrotation Xrotation Yrotation
							JOINT RightHand
							{
								OFFSET	 0.000000	 0.000000	 0.360648
								CHANNELS 3 Zrotation Xrotation Yrotation
								JOINT RightHandIndex1
								{
									OFFSET	 0.000000	 0.000000	 0.069977
									CHANNELS 3 Zrotation Xrotation Yrotation
									JOINT RightHandIndex2
									{
										OFFSET	 0.000000	 0.000000	 0.052305
										CHANNELS 3 Zrotation Xrotation Yrotation
										JOINT RightHandIndex3
										{
											OFFSET	 0.009002	-0.000782	 0.042196
											CHANNELS 3 Zrotation Xrotation Yrotation
											End Site
											{
												OFFSET	 0.009002	-0.000782	 0.042196
											}
										}
									}
								}
							}
						}
					}
				}
			}
		}
	}
}
MOTION
Frames:    7
Frame Time: 0.03333334
 0.000295	 0.042568	 1.276484	-0.083090	 2.475911	 0.590896	-5.614820	-5.398083	 179.046000	 2.279447	-12.883620	 0.601553	 0.158092	 71.263270	-0.363508	-2.385833	 28.452750	 0.000004	 13.163680	-4.738777	-179.358300	-0.804263	-10.849370	 0.818799	 5.056181	 69.947780	 1.293816	 2.384659	 28.388700	-0.000001	-0.468082	 7.110126	 0.302980	-0.156229	-5.575270	 0.069897	 0.924821	 8.688316	 0.149954	-91.172260	 69.806800	-177.833300	-7.501052	 1.229331	-7.849056	 24.858100	-6.376582	-23.470410	-9.281474	-21.185090	-4.321884	-2.027600	 6.559038	 9.033609	-5.188889	 0.308190	 3.541030	-5.234859	 0.342567	 0.430617	 4.364065	 17.737680	-6.670690	-4.190129	-12.969310	 1.963271	 89.018670	 68.708900	 177.373600	 10.000660	 7.211417	 6.933462	-26.638170	-8.245454	 22.627520	 6.750515	-21.257180	 6.476796	 1.803333	 3.979147	-15.098590	 4.898592	 3.004813	-9.310344	 5.224449	 0.395017	 2.014677
 0.000268	 0.042780	 1.276638	-0.079683	 2.548299	 0.594450	-5.628726	-5.425999	 179.031800	 2.262965	-12.760750	 0.592259	 0.141530	 71.180030	-0.329488	-2.385833	 28.452750	 0.000004	 13.165020	-4.743140	-179.335800	-0.803883	-10.680380	 0.806267	 5.042949	 69.849210	 1.303821	 2.384659	 28.388700	-0.000001	-0.476849	 7.187200	 0.307571	-0.162429	-5.844943	 0.060325	 0.940048	 9.002451	 0.150616	-91.154020	 69.680950	-177.790800	-7.415206	 1.095593	-7.967727	 24.802340	-6.382609	-23.575350	-9.096148	-21.313040	-4.353100	-2.027600	 6.559038	 9.033609	-5.188889	 0.308190	 3.541030	-5.234859	 0.342567	 0.430617	 4.401934	 18.066540	-6.774440	-4.169916	-13.188760	 1.956062	 88.993650	 68.535910	 177.322600	 9.959050	 7.075467	 7.086902	-26.645920	-8.275758	 22.692840	 6.542651	-21.321510	 6.415921	 1.803333	 3.979147	-15.098590	 4.898592	 3.004813	-9.310344	 5.224449	 0.395017	 2.014677
 0.000093	 0.044243	 1.277560	-0.057827	 3.011576	 0.617469	-5.717567	-5.615029	 178.938500	 2.158494	-11.983930	 0.535022	 0.039917	 70.644110	-0.116317	-2.385833	 28.452750	 0.000004	 13.172610	-4.767191	-179.190000	-0.800908	-9.579623	 0.724503	 4.965930	 69.201240	 1.360012	 2.384659	 28.388700	-0.000001	-0.535138	 7.554965	 0.354090	-0.209786	-7.285821	-0.030704	 1.040401	 10.884720	 0.166814	-91.032840	 68.873270	-177.521100	-6.880059	 0.331991	-8.713655	 24.444440	-6.438432	-24.321010	-7.930629	-22.107060	-4.566368	-2.027600	 6.559038	 9.033609	-5.188889	 0.308190	 3.541030	-5.234859	 0.342567	 0.430617	 4.661458	 20.175920	-7.449004	-4.032185	-14.591720	 1.910221	 88.828120	 67.425840	 176.999300	 9.707672	 6.310834	 8.057796	-26.704020	-8.489872	 23.146450	 5.222801	-21.722110	 6.027288	 1.803333	 3.979147	-15.098590	 4.898592	 3.004813	-9.310344	 5.224449	 0.395017	 2.014677
-0.000258	 0.046434	 1.278282	-0.003153	 3.679455	 0.663348	-5.864253	-6.162979	 178.778000	 2.147436	-11.420170	 0.508000	-0.261470	 70.269000	 0.220771	-2.385833	 28.452750	 0.000004	 13.140000	-5.054696	-179.021700	-0.809717	-8.502080	 0.642341	 4.934926	 68.508940	 1.381332	 2.384659	 28.388700	-0.000001	-0.489393	 7.959318	 0.390527	-0.229052	-9.026496	-0.134818	 0.999238	 12.764470	 0.207460	-90.940620	 68.230520	-177.337100	-6.402677	 0.058987	-9.247688	 23.952790	-6.501195	-25.347030	-6.997188	-23.276080	-4.996071	-2.027600	 6.559038	 9.033609	-5.188889	 0.308190	 3.541030	-5.234859	 0.342567	 0.430617	 4.710814	 22.101250	-8.013347	-3.811303	-16.033820	 1.886628	 88.658530	 66.232020	 176.710300	 9.323695	 5.754997	 8.883661	-26.552030	-8.672014	 23.767430	 3.888112	-22.364700	 5.725428	 1.803333	 3.979147	-15.098590	 4.898592	 3.004813	-9.310344	 5.224449	 0.395017	 2.014677
-0.000571	 0.048576	 1.278750	 0.046726	 4.269418	 0.705332	-6.030375	-6.706240	 178.623600	 2.117011	-11.022350	 0.491373	-0.533800	 69.981000	 0.512060	-2.385833	 28.452750	 0.000004	 13.107660	-5.344530	-178.874600	-0.818152	-7.600914	 0.573567	 4.940145	 67.907510	 1.367802	 2.384659	 28.388700	-0.000001	-0.439223	 8.288170	 0.415789	-0.249841	-10.407860	-0.216073	 0.952416	 14.305260	 0.244358	-90.863430	 67.699700	-177.190400	-5.989790	 0.066962	-9.733032	 23.526220	-6.556941	-26.288550	-6.263394	-24.278940	-5.404585	-2.027600	 6.559038	 9.033609	-5.188889	 0.308190	 3.541030	-5.234859	 0.342567	 0.430617	 4.744377	 23.724860	-8.480490	-3.608529	-17.264190	 1.876248	 88.509310	 65.206280	 176.470900	 8.978631	 5.514409	 9.601838	-26.412000	-8.828000	 24.314970	 2.768413	-22.917370	 5.491274	 1.803333	 3.979147	-15.098590	 4.898592	 3.004813	-9.310344	 5.224449	 0.395017	 2.014677
-0.000892	 0.051099	 1.279240	 0.102408	 4.947481	 0.761401	-6.106785	-7.344636	 178.449100	 2.182609	-10.583450	 0.470600	-0.841797	 69.662280	 0.850454	-2.385833	 28.452760	 0.000004	 13.032810	-5.612784	-178.706800	-0.928944	-6.421063	 0.472488	 5.019692	 67.165680	 1.379609	 2.384659	 28.388700	-0.000001	-0.368792	 8.565671	 0.419019	-0.274361	-11.841020	-0.275422	 0.860993	 15.765040	 0.265880	-90.825040	 67.062510	-177.183800	-5.463191	 0.144808	-10.060440	 22.816020	-6.453482	-27.259550	-5.890985	-25.243290	-5.960760	-2.027600	 6.559038	 9.033609	-5.188889	 0.308190	 3.541030	-5.234859	 0.342567	 0.430617	 4.669651	 24.938910	-8.743768	-3.443498	-18.220970	 1.813529	 88.419560	 64.138740	 176.409300	 8.384730	 5.325549	 10.130600	-26.096750	-8.891829	 24.864440	 1.744067	-23.417900	 5.427517	 1.803333	 3.979147	-15.098590	 4.898592	 3.004813	-9.310344	 5.224449	 0.395017	 2.014677
-0.001239	 0.054179	 1.279787	 0.167934	 5.757218	 0.835517	-6.316037	-8.107339	 178.213900	 2.124993	-10.061620	 0.444309	-1.194792	 69.283330	 1.253514	-2.385832	 28.452790	-0.000001	 12.905750	-5.751840	-178.499100	-1.159221	-4.628037	 0.322223	 5.160270	 66.104910	 1.452208	 2.384659	 28.388700	-0.000001	-0.271677	 8.792296	 0.398456	-0.301133	-13.362470	-0.312819	 0.713593	 17.190660	 0.276291	-90.831700	 66.277040	-177.324400	-4.769737	 0.289829	-10.268640	 21.773410	-6.144155	-28.254990	-5.901699	-26.207780	-6.698843	-2.027600	 6.559038	 9.033609	-5.188889	 0.308190	 3.541030	-5.234859	 0.342567	 0.430617	 4.461240	 25.769620	-8.794518	-3.317528	-18.931430	 1.687544	 88.398070	 62.970940	 176.530300	 7.466987	 5.163914	 10.518020	-25.579880	-8.835219	 25.395190	 0.777343	-23.886510	 5.549970	 1.803333	 3.979147	-15.098590	 4.898592	 3.004813	-9.310344	 5.224449	 0.395017	 2.014677
